<mxfile host="65bd71144e">
    <diagram id="vR1wObXb0Fl8Qe1qTvs4" name="Page-1">
        <mxGraphModel dx="853" dy="531" grid="1" gridSize="10" guides="1" tooltips="1" connect="1" arrows="1" fold="1" page="1" pageScale="1" pageWidth="1169" pageHeight="827" math="0" shadow="0">
            <root>
                <mxCell id="0"/>
                <mxCell id="1" parent="0"/>
                <mxCell id="76" style="edgeStyle=none;rounded=0;html=1;entryX=0;entryY=0;entryDx=0;entryDy=0;" edge="1" parent="1" source="2" target="60">
                    <mxGeometry relative="1" as="geometry"/>
                </mxCell>
                <mxCell id="2" value="fs1" style="whiteSpace=wrap;html=1;" parent="1" vertex="1">
                    <mxGeometry x="85" y="250" width="50" height="40" as="geometry"/>
                </mxCell>
                <mxCell id="77" style="edgeStyle=none;rounded=0;html=1;entryX=0;entryY=0;entryDx=0;entryDy=0;" edge="1" parent="1" source="3" target="61">
                    <mxGeometry relative="1" as="geometry">
                        <Array as="points">
                            <mxPoint x="155" y="320"/>
                            <mxPoint x="155" y="290"/>
                        </Array>
                    </mxGeometry>
                </mxCell>
                <mxCell id="3" value="fs2" style="whiteSpace=wrap;html=1;" parent="1" vertex="1">
                    <mxGeometry x="85" y="300" width="50" height="40" as="geometry"/>
                </mxCell>
                <mxCell id="59" style="edgeStyle=none;rounded=0;html=1;endArrow=none;endFill=0;dashed=1;" parent="1" edge="1">
                    <mxGeometry relative="1" as="geometry">
                        <mxPoint x="165" y="50" as="sourcePoint"/>
                        <mxPoint x="165" y="480" as="targetPoint"/>
                    </mxGeometry>
                </mxCell>
                <mxCell id="39" value="count" style="whiteSpace=wrap;html=1;" parent="1" vertex="1">
                    <mxGeometry x="205" y="190" width="120" height="20" as="geometry"/>
                </mxCell>
                <mxCell id="40" value="..." style="whiteSpace=wrap;html=1;" parent="1" vertex="1">
                    <mxGeometry x="205" y="210" width="120" height="20" as="geometry"/>
                </mxCell>
                <mxCell id="41" value="fd[0]" style="whiteSpace=wrap;html=1;" parent="1" vertex="1">
                    <mxGeometry x="205" y="230" width="120" height="20" as="geometry"/>
                </mxCell>
                <mxCell id="42" value="fd[1]" style="whiteSpace=wrap;html=1;" parent="1" vertex="1">
                    <mxGeometry x="205" y="250" width="120" height="20" as="geometry"/>
                </mxCell>
                <mxCell id="43" value="fd[...]" style="whiteSpace=wrap;html=1;" parent="1" vertex="1">
                    <mxGeometry x="205" y="330" width="120" height="20" as="geometry"/>
                </mxCell>
                <mxCell id="44" value="fd[255]" style="whiteSpace=wrap;html=1;" parent="1" vertex="1">
                    <mxGeometry x="205" y="350" width="120" height="20" as="geometry"/>
                </mxCell>
                <mxCell id="46" value="struct files_struct" style="text;html=1;resizable=0;autosize=1;align=center;verticalAlign=middle;points=[];fillColor=none;strokeColor=none;rounded=0;" parent="1" vertex="1">
                    <mxGeometry x="205" y="170" width="110" height="20" as="geometry"/>
                </mxCell>
                <mxCell id="58" value="Kernel Space" style="text;html=1;resizable=0;autosize=1;align=center;verticalAlign=middle;points=[];fillColor=none;strokeColor=none;rounded=0;" parent="1" vertex="1">
                    <mxGeometry x="190" y="60" width="90" height="20" as="geometry"/>
                </mxCell>
                <mxCell id="74" style="edgeStyle=none;rounded=0;html=1;exitX=1;exitY=0.5;exitDx=0;exitDy=0;entryX=0;entryY=0;entryDx=0;entryDy=0;" edge="1" parent="1" source="60">
                    <mxGeometry relative="1" as="geometry">
                        <mxPoint x="365" y="110" as="targetPoint"/>
                        <Array as="points">
                            <mxPoint x="345" y="280"/>
                            <mxPoint x="345" y="110"/>
                        </Array>
                    </mxGeometry>
                </mxCell>
                <mxCell id="60" value="fd[2]" style="whiteSpace=wrap;html=1;" vertex="1" parent="1">
                    <mxGeometry x="205" y="270" width="120" height="20" as="geometry"/>
                </mxCell>
                <mxCell id="75" style="edgeStyle=none;rounded=0;html=1;exitX=1;exitY=0.5;exitDx=0;exitDy=0;entryX=0;entryY=0;entryDx=0;entryDy=0;" edge="1" parent="1" source="61" target="79">
                    <mxGeometry relative="1" as="geometry">
                        <mxPoint x="365" y="300" as="targetPoint"/>
                    </mxGeometry>
                </mxCell>
                <mxCell id="61" value="fd[3]" style="whiteSpace=wrap;html=1;" vertex="1" parent="1">
                    <mxGeometry x="205" y="290" width="120" height="20" as="geometry"/>
                </mxCell>
                <mxCell id="62" value="fd[4]" style="whiteSpace=wrap;html=1;" vertex="1" parent="1">
                    <mxGeometry x="205" y="310" width="120" height="20" as="geometry"/>
                </mxCell>
                <mxCell id="78" value="User Space" style="text;html=1;resizable=0;autosize=1;align=center;verticalAlign=middle;points=[];fillColor=none;strokeColor=none;rounded=0;" vertex="1" parent="1">
                    <mxGeometry x="70" y="60" width="80" height="20" as="geometry"/>
                </mxCell>
                <mxCell id="79" value="*f_node" style="whiteSpace=wrap;html=1;" vertex="1" parent="1">
                    <mxGeometry x="370" y="300" width="120" height="20" as="geometry"/>
                </mxCell>
                <mxCell id="80" value="*f_op" style="whiteSpace=wrap;html=1;" vertex="1" parent="1">
                    <mxGeometry x="370" y="320" width="120" height="20" as="geometry"/>
                </mxCell>
                <mxCell id="81" value="f_count" style="whiteSpace=wrap;html=1;" vertex="1" parent="1">
                    <mxGeometry x="370" y="340" width="120" height="20" as="geometry"/>
                </mxCell>
                <mxCell id="82" value="f_flags" style="whiteSpace=wrap;html=1;" vertex="1" parent="1">
                    <mxGeometry x="370" y="360" width="120" height="20" as="geometry"/>
                </mxCell>
                <mxCell id="83" value="f_mode" style="whiteSpace=wrap;html=1;" vertex="1" parent="1">
                    <mxGeometry x="370" y="380" width="120" height="20" as="geometry"/>
                </mxCell>
                <mxCell id="84" value="f_pos" style="whiteSpace=wrap;html=1;" vertex="1" parent="1">
                    <mxGeometry x="370" y="400" width="120" height="20" as="geometry"/>
                </mxCell>
                <mxCell id="85" style="edgeStyle=none;rounded=0;html=1;exitX=1;exitY=0.5;exitDx=0;exitDy=0;entryX=0;entryY=0;entryDx=0;entryDy=0;endArrow=classic;endFill=1;" edge="1" parent="1" source="86" target="90">
                    <mxGeometry relative="1" as="geometry">
                        <Array as="points">
                            <mxPoint x="510" y="430"/>
                            <mxPoint x="510" y="295"/>
                        </Array>
                    </mxGeometry>
                </mxCell>
                <mxCell id="86" value="f_dentry" style="whiteSpace=wrap;html=1;" vertex="1" parent="1">
                    <mxGeometry x="370" y="420" width="120" height="20" as="geometry"/>
                </mxCell>
                <mxCell id="87" value="..." style="whiteSpace=wrap;html=1;" vertex="1" parent="1">
                    <mxGeometry x="710" y="295" width="120" height="20" as="geometry"/>
                </mxCell>
                <mxCell id="88" value="struct file" style="text;html=1;resizable=0;autosize=1;align=center;verticalAlign=middle;points=[];fillColor=none;strokeColor=none;rounded=0;" vertex="1" parent="1">
                    <mxGeometry x="400" y="280" width="60" height="20" as="geometry"/>
                </mxCell>
                <mxCell id="89" value="..." style="whiteSpace=wrap;html=1;" vertex="1" parent="1">
                    <mxGeometry x="370" y="440" width="120" height="20" as="geometry"/>
                </mxCell>
                <mxCell id="90" value="..." style="whiteSpace=wrap;html=1;" vertex="1" parent="1">
                    <mxGeometry x="540" y="295" width="120" height="20" as="geometry"/>
                </mxCell>
                <mxCell id="91" style="edgeStyle=none;rounded=0;html=1;exitX=1;exitY=0.5;exitDx=0;exitDy=0;entryX=0;entryY=0;entryDx=0;entryDy=0;endArrow=classic;endFill=1;" edge="1" parent="1" source="92" target="87">
                    <mxGeometry relative="1" as="geometry">
                        <Array as="points">
                            <mxPoint x="680" y="325"/>
                            <mxPoint x="680" y="295"/>
                        </Array>
                    </mxGeometry>
                </mxCell>
                <mxCell id="92" value="d_inode" style="whiteSpace=wrap;html=1;" vertex="1" parent="1">
                    <mxGeometry x="540" y="315" width="120" height="20" as="geometry"/>
                </mxCell>
                <mxCell id="93" value="d_op" style="whiteSpace=wrap;html=1;" vertex="1" parent="1">
                    <mxGeometry x="540" y="335" width="120" height="20" as="geometry"/>
                </mxCell>
                <mxCell id="94" value="struct dentry" style="text;html=1;resizable=0;autosize=1;align=center;verticalAlign=middle;points=[];fillColor=none;strokeColor=none;rounded=0;" vertex="1" parent="1">
                    <mxGeometry x="550" y="275" width="80" height="20" as="geometry"/>
                </mxCell>
                <mxCell id="95" value="union" style="whiteSpace=wrap;html=1;" vertex="1" parent="1">
                    <mxGeometry x="710" y="315" width="120" height="20" as="geometry"/>
                </mxCell>
                <mxCell id="96" value="i_op" style="whiteSpace=wrap;html=1;" vertex="1" parent="1">
                    <mxGeometry x="710" y="335" width="120" height="20" as="geometry"/>
                </mxCell>
                <mxCell id="97" value="..." style="whiteSpace=wrap;html=1;" vertex="1" parent="1">
                    <mxGeometry x="710" y="355" width="120" height="20" as="geometry"/>
                </mxCell>
                <mxCell id="98" value="..." style="whiteSpace=wrap;html=1;" vertex="1" parent="1">
                    <mxGeometry x="540" y="355" width="120" height="20" as="geometry"/>
                </mxCell>
                <mxCell id="99" style="edgeStyle=none;rounded=0;html=1;exitX=1;exitY=0.5;exitDx=0;exitDy=0;entryX=1;entryY=0;entryDx=0;entryDy=0;endArrow=classic;endFill=1;" edge="1" parent="1" source="100" target="104">
                    <mxGeometry relative="1" as="geometry">
                        <Array as="points">
                            <mxPoint x="860" y="385"/>
                            <mxPoint x="860" y="180"/>
                        </Array>
                    </mxGeometry>
                </mxCell>
                <mxCell id="100" value="i_sb" style="whiteSpace=wrap;html=1;" vertex="1" parent="1">
                    <mxGeometry x="710" y="375" width="120" height="20" as="geometry"/>
                </mxCell>
                <mxCell id="101" value="i_mapping" style="whiteSpace=wrap;html=1;" vertex="1" parent="1">
                    <mxGeometry x="710" y="395" width="120" height="20" as="geometry"/>
                </mxCell>
                <mxCell id="102" value="..." style="whiteSpace=wrap;html=1;" vertex="1" parent="1">
                    <mxGeometry x="710" y="415" width="120" height="20" as="geometry"/>
                </mxCell>
                <mxCell id="103" value="struct inode" style="text;html=1;resizable=0;autosize=1;align=center;verticalAlign=middle;points=[];fillColor=none;strokeColor=none;rounded=0;" vertex="1" parent="1">
                    <mxGeometry x="720" y="275" width="80" height="20" as="geometry"/>
                </mxCell>
                <mxCell id="104" value="..." style="whiteSpace=wrap;html=1;" vertex="1" parent="1">
                    <mxGeometry x="590" y="180" width="120" height="20" as="geometry"/>
                </mxCell>
                <mxCell id="105" value="s_op" style="whiteSpace=wrap;html=1;" vertex="1" parent="1">
                    <mxGeometry x="590" y="200" width="120" height="20" as="geometry"/>
                </mxCell>
                <mxCell id="106" value="s_root" style="whiteSpace=wrap;html=1;" vertex="1" parent="1">
                    <mxGeometry x="590" y="220" width="120" height="20" as="geometry"/>
                </mxCell>
                <mxCell id="107" value="..." style="whiteSpace=wrap;html=1;" vertex="1" parent="1">
                    <mxGeometry x="590" y="240" width="120" height="20" as="geometry"/>
                </mxCell>
                <mxCell id="108" value="struct super_block" style="text;html=1;resizable=0;autosize=1;align=center;verticalAlign=middle;points=[];fillColor=none;strokeColor=none;rounded=0;" vertex="1" parent="1">
                    <mxGeometry x="595" y="160" width="110" height="20" as="geometry"/>
                </mxCell>
                <mxCell id="109" value="*f_node" style="whiteSpace=wrap;html=1;" vertex="1" parent="1">
                    <mxGeometry x="370" y="110" width="120" height="20" as="geometry"/>
                </mxCell>
                <mxCell id="110" value="*f_op" style="whiteSpace=wrap;html=1;" vertex="1" parent="1">
                    <mxGeometry x="370" y="130" width="120" height="20" as="geometry"/>
                </mxCell>
                <mxCell id="111" value="f_count" style="whiteSpace=wrap;html=1;" vertex="1" parent="1">
                    <mxGeometry x="370" y="150" width="120" height="20" as="geometry"/>
                </mxCell>
                <mxCell id="112" value="f_flags" style="whiteSpace=wrap;html=1;" vertex="1" parent="1">
                    <mxGeometry x="370" y="170" width="120" height="20" as="geometry"/>
                </mxCell>
                <mxCell id="113" value="f_mode" style="whiteSpace=wrap;html=1;" vertex="1" parent="1">
                    <mxGeometry x="370" y="190" width="120" height="20" as="geometry"/>
                </mxCell>
                <mxCell id="114" value="f_pos" style="whiteSpace=wrap;html=1;" vertex="1" parent="1">
                    <mxGeometry x="370" y="210" width="120" height="20" as="geometry"/>
                </mxCell>
                <mxCell id="118" style="edgeStyle=none;rounded=0;html=1;exitX=1;exitY=0.5;exitDx=0;exitDy=0;entryX=0;entryY=0;entryDx=0;entryDy=0;" edge="1" parent="1" source="115" target="90">
                    <mxGeometry relative="1" as="geometry">
                        <Array as="points">
                            <mxPoint x="510" y="240"/>
                            <mxPoint x="510" y="295"/>
                        </Array>
                    </mxGeometry>
                </mxCell>
                <mxCell id="115" value="f_dentry" style="whiteSpace=wrap;html=1;" vertex="1" parent="1">
                    <mxGeometry x="370" y="230" width="120" height="20" as="geometry"/>
                </mxCell>
                <mxCell id="116" value="struct file" style="text;html=1;resizable=0;autosize=1;align=center;verticalAlign=middle;points=[];fillColor=none;strokeColor=none;rounded=0;" vertex="1" parent="1">
                    <mxGeometry x="400" y="90" width="60" height="20" as="geometry"/>
                </mxCell>
                <mxCell id="117" value="..." style="whiteSpace=wrap;html=1;" vertex="1" parent="1">
                    <mxGeometry x="370" y="250" width="120" height="20" as="geometry"/>
                </mxCell>
            </root>
        </mxGraphModel>
    </diagram>
</mxfile>